# xmcd
#
# Track frame offsets: 
#        150
#        17032
#        32249
#        51631
#        82370
#        99211
#        118732
#        133485
#        155077
#        168964
#        186547
#        203802
#        223622
#
# Disc length: 3307 seconds
#
# Revision: 0
# Processed by: cddbd v1.4PL0 Copyright (c) Steve Scherf et al.
# Submitted via: ExactAudioCopy v0.90b4
#
DISCID=c90ce90d
DTITLE=Gregory Page - The John Doe Sessions
DYEAR=1999
DGENRE=
TTITLE0=Diamonds And Gold
TTITLE1=Fare Thee Well
TTITLE2=Blue
TTITLE3=Pictues In The Dark
TTITLE4=Cocktails And Cold Hearts
TTITLE5=Walking In The Park
TTITLE6=Down At The Local
TTITLE7=Superhero
TTITLE8=Leave Me Be
TTITLE9=The Great Mystery
TTITLE10=A Long Way From Heaven
TTITLE11=Hollywoods Heroes
TTITLE12=Way Back When?
EXTD=
EXTT0=
EXTT1=
EXTT2=
EXTT3=
EXTT4=
EXTT5=
EXTT6=
EXTT7=
EXTT8=
EXTT9=
EXTT10=
EXTT11=
EXTT12=
PLAYORDER=
